<svg width="103" height="103" viewBox="0 0 103 103" fill="none" xmlns="http://www.w3.org/2000/svg">
<path d="M75.1167 44.2333C75.7307 44.2333 76.3284 44.2896 76.9333 44.3259V26.5571L41.4756 47.8121C41.1953 47.9593 40.9022 48.0809 40.6 48.1755V88.7979L46.0736 85.5152C44.3868 80.8573 43.8486 75.8612 44.5047 70.9509C45.1608 66.0406 46.9917 61.361 49.8422 57.3093C52.6927 53.2576 56.4786 49.9533 60.8786 47.677C65.2785 45.4006 70.1627 44.2193 75.1167 44.2333Z" fill="#00A3CC"/>
<path d="M36.9667 88.7998V48.1864C36.6685 48.0903 36.3792 47.9688 36.1019 47.823L0.633323 26.5571V66.2313C0.631953 66.4706 0.692656 66.7062 0.809508 66.9151C0.926361 67.124 1.09537 67.299 1.30004 67.423L36.9667 88.7998Z" fill="#00A3CC"/>
<path d="M37.9604 44.7003C38.2117 44.8482 38.4981 44.9262 38.7897 44.9262C39.0813 44.9262 39.3677 44.8482 39.619 44.7003L76.1522 22.7967L39.51 0.815071C39.2891 0.687514 39.0384 0.620361 38.7833 0.620361C38.5282 0.620361 38.2776 0.687514 38.0567 0.815071L1.41267 22.7967L37.9604 44.7003Z" fill="#00A3CC"/>
<path d="M76.9333 71.4835V60.5835H73.3V71.4835C73.3 71.9653 73.1086 72.4274 72.7679 72.7681C72.4272 73.1088 71.9651 73.3002 71.4833 73.3002H60.5833V76.9335H71.4833C71.9651 76.9335 72.4272 77.1249 72.7679 77.4656C73.1086 77.8063 73.3 78.2684 73.3 78.7502V89.6502H76.9333V78.7502C76.9333 78.2684 77.1247 77.8063 77.4654 77.4656C77.8061 77.1249 78.2682 76.9335 78.75 76.9335H89.65V73.3002H78.75C78.2682 73.3002 77.8061 73.1088 77.4654 72.7681C77.1247 72.4274 76.9333 71.9653 76.9333 71.4835Z" fill="#00A3CC"/>
<path d="M75.1167 47.8667C69.7271 47.8667 64.4586 49.4649 59.9774 52.4592C55.4961 55.4534 52.0034 59.7093 49.9409 64.6886C47.8785 69.6679 47.3388 75.1469 48.3903 80.4329C49.4417 85.7189 52.037 90.5744 55.848 94.3854C59.659 98.1963 64.5145 100.792 69.8005 101.843C75.0864 102.895 80.5655 102.355 85.5448 100.292C90.5241 98.2299 94.78 94.7372 97.7742 90.256C100.768 85.7748 102.367 80.5062 102.367 75.1167C102.358 67.8921 99.4849 60.9657 94.3763 55.8571C89.2677 50.7485 82.3413 47.8749 75.1167 47.8667ZM93.2833 76.9334C93.2833 77.897 92.9005 78.8211 92.2192 79.5025C91.5378 80.1839 90.6136 80.5667 89.65 80.5667H80.5667V89.65C80.5667 90.6137 80.1839 91.5378 79.5025 92.2192C78.8211 92.9006 77.897 93.2834 76.9333 93.2834H73.3C72.3364 93.2834 71.4122 92.9006 70.7308 92.2192C70.0495 91.5378 69.6667 90.6137 69.6667 89.65V80.5667H60.5833C59.6197 80.5667 58.6956 80.1839 58.0142 79.5025C57.3328 78.8211 56.95 77.897 56.95 76.9334V73.3C56.95 72.3364 57.3328 71.4123 58.0142 70.7309C58.6956 70.0495 59.6197 69.6667 60.5833 69.6667H69.6667V60.5834C69.6667 59.6197 70.0495 58.6956 70.7308 58.0142C71.4122 57.3328 72.3364 56.95 73.3 56.95H76.9333C77.897 56.95 78.8211 57.3328 79.5025 58.0142C80.1839 58.6956 80.5667 59.6197 80.5667 60.5834V69.6667H89.65C90.6136 69.6667 91.5378 70.0495 92.2192 70.7309C92.9005 71.4123 93.2833 72.3364 93.2833 73.3V76.9334Z" fill="#00A3CC"/>
</svg>
