<svg width="49" height="49" viewBox="0 0 49 49" fill="none" xmlns="http://www.w3.org/2000/svg">
<path d="M38.9875 32.3375C38.75 32.575 38.275 32.8125 38.0375 33.05L32.3375 34L36.375 42.55C36.85 43.5 36.375 44.45 35.425 44.925L28.775 48.0125C28.5375 48.25 28.3 48.25 28.0625 48.25C27.35 48.25 26.6375 47.775 26.4 47.3L22.6 38.75L18.0875 42.3125C17.85 42.55 17.375 42.7875 16.9 42.7875C15.95 42.7875 15 42.075 15 40.8875V13.8125C15 12.625 15.7125 11.9125 16.9 11.9125C17.375 11.9125 17.85 12.15 18.0875 12.3875L38.75 29.9625C39.4625 30.4375 39.7 31.625 38.9875 32.3375ZM10.25 24.5H5.5V5.5H43.5V24.5H39.7L44.925 29.0125C46.825 28.3 48.0125 26.6375 48.0125 24.5V5.5C48.0125 2.8875 45.875 0.75 43.2625 0.75H5.5C2.8875 0.75 0.75 2.8875 0.75 5.5V24.5C0.75 27.1125 2.8875 29.25 5.5 29.25H10.25V24.5Z" fill="#00A3CC"/>
</svg>
