<svg width="17" height="19" viewBox="0 0 17 19" fill="none" xmlns="http://www.w3.org/2000/svg">
<path d="M5.92306 15.2C5.40541 15.2 4.96243 15.0141 4.59412 14.6424C4.22518 14.2699 4.04071 13.8225 4.04071 13.3V1.9C4.04071 1.3775 4.22518 0.93005 4.59412 0.55765C4.96243 0.185883 5.40541 0 5.92306 0H14.3936C14.9113 0 15.3546 0.185883 15.7235 0.55765C16.0918 0.93005 16.276 1.3775 16.276 1.9V13.3C16.276 13.8225 16.0918 14.2699 15.7235 14.6424C15.3546 15.0141 14.9113 15.2 14.3936 15.2H5.92306ZM2.15835 19C1.64071 19 1.19741 18.8141 0.828471 18.4424C0.460158 18.07 0.276001 17.6225 0.276001 17.1V4.75C0.276001 4.48083 0.366354 4.25505 0.54706 4.07265C0.727138 3.89088 0.950511 3.8 1.21718 3.8C1.48384 3.8 1.70753 3.89088 1.88824 4.07265C2.06831 4.25505 2.15835 4.48083 2.15835 4.75V17.1H11.5701C11.8368 17.1 12.0605 17.1912 12.2412 17.3736C12.4213 17.5554 12.5113 17.7808 12.5113 18.05C12.5113 18.3192 12.4213 18.5446 12.2412 18.7264C12.0605 18.9088 11.8368 19 11.5701 19H2.15835Z" fill="white"/>
</svg>
