<svg width="57" height="50" viewBox="0 0 57 50" fill="none" xmlns="http://www.w3.org/2000/svg">
<path d="M16.0333 28.5715C17.4507 28.5715 18.8101 28.0071 19.8123 27.0024C20.8146 25.9977 21.3777 24.6351 21.3777 23.2143C21.3777 21.7935 20.8146 20.4309 19.8123 19.4262C18.8101 18.4216 17.4507 17.8572 16.0333 17.8572C14.6158 17.8572 13.2565 18.4216 12.2542 19.4262C11.2519 20.4309 10.6888 21.7935 10.6888 23.2143C10.6888 24.6351 11.2519 25.9977 12.2542 27.0024C13.2565 28.0071 14.6158 28.5715 16.0333 28.5715Z" fill="#00A3CC"/>
<path d="M49.8812 42.8571C49.8812 44.7515 49.1305 46.5684 47.7941 47.9079C46.4577 49.2474 44.6452 50 42.7553 50H7.12589C5.23599 50 3.42349 49.2474 2.08713 47.9079C0.750761 46.5684 0 44.7515 0 42.8571V14.2857C-9.44334e-07 12.3925 0.749782 10.5768 2.08461 9.23748C3.41943 7.89813 5.2301 7.14475 7.11876 7.14286C7.11876 5.24845 7.86953 3.43164 9.20589 2.09209C10.5423 0.752549 12.3548 0 14.2447 0H49.8741C51.764 0 53.5765 0.752549 54.9129 2.09209C56.2492 3.43164 57 5.24845 57 7.14286V35.7143C57 37.6075 56.2502 39.4232 54.9154 40.7625C53.5806 42.1019 51.7699 42.8552 49.8812 42.8571ZM49.8741 3.57143H14.2447C13.2997 3.57143 12.3935 3.9477 11.7253 4.61748C11.0571 5.28725 10.6817 6.19566 10.6817 7.14286H42.7553C44.6452 7.14286 46.4577 7.89541 47.7941 9.23495C49.1305 10.5745 49.8812 12.3913 49.8812 14.2857V39.2857C50.825 39.2838 51.7294 38.9067 52.396 38.2371C53.0627 37.5676 53.4371 36.6603 53.4371 35.7143V7.14286C53.4371 6.19566 53.0617 5.28725 52.3935 4.61748C51.7253 3.9477 50.8191 3.57143 49.8741 3.57143ZM7.12589 10.7143C6.18094 10.7143 5.27469 11.0906 4.60651 11.7603C3.93833 12.4301 3.56295 13.3385 3.56295 14.2857V42.8571L12.9905 34.45C13.2817 34.1592 13.6643 33.9782 14.0734 33.9379C14.4825 33.8975 14.893 34.0002 15.2352 34.2286L24.7126 40.5607L37.9311 27.3107C38.1953 27.0456 38.536 26.8706 38.905 26.8103C39.2739 26.7501 39.6525 26.8077 39.9869 26.975L46.3183 33.9286V14.2857C46.3183 13.3385 45.9429 12.4301 45.2747 11.7603C44.6065 11.0906 43.7003 10.7143 42.7553 10.7143H7.12589Z" fill="#00A3CC"/>
</svg>
