<svg width="57" height="57" viewBox="0 0 57 57" fill="none" xmlns="http://www.w3.org/2000/svg">
<path d="M35.3717 6.33333L50.6667 21.6283V50.6667H6.33333V6.33333H35.3717ZM35.3717 0H6.33333C2.85 0 0 2.85 0 6.33333V50.6667C0 54.15 2.85 57 6.33333 57H50.6667C54.15 57 57 54.15 57 50.6667V21.6283C57 19.95 56.335 18.335 55.1317 17.1633L39.8367 1.86833C38.665 0.665 37.05 0 35.3717 0ZM12.6667 38H44.3333V44.3333H12.6667V38ZM12.6667 25.3333H44.3333V31.6667H12.6667V25.3333ZM12.6667 12.6667H34.8333V19H12.6667V12.6667Z" fill="#00A3CC"/>
</svg>
