<svg xmlns="http://www.w3.org/2000/svg" viewBox="0 0 199.18 29"> <!-- viewBox="0 0 199.18 30.45"-->
    <defs>
        <style>
            .cls-1 {
                fill: #00bad8;
            }
            .cls-2 {
                fill: #86e3f2;
            }
            .cls-3 {
                fill: #ffd400;
            }
        </style>
    </defs>
    <title>wm-logo-full-color_1</title>
    <g id="Layer_2" data-name="Layer 2">
        <g id="Logo_Stroke" data-name="Logo Stroke">
            <g id="Text">
                <path
                    class="cls-1"
                    d="M55,10.17a.64.64,0,0,1,.06-.54.61.61,0,0,1,.53-.21h.82a.7.7,0,0,1,.73.61l1.69,7.42c0,.16.06.32.08.47s0,.28.06.4a2.38,2.38,0,0,1,0,.36h0a2.58,2.58,0,0,1,0-.36,7,7,0,0,1,.19-.87L61.24,10A.74.74,0,0,1,62,9.42h.56a.68.68,0,0,1,.73.59l1.92,7.44c0,.17.08.33.11.47s.06.28.08.4,0,.25,0,.36h0c0-.11,0-.23.05-.36s0-.26.06-.4a2.77,2.77,0,0,1,.09-.47L67.47,10a.68.68,0,0,1,.75-.61H69a.56.56,0,0,1,.61.75L66.93,20.46a.72.72,0,0,1-.77.57H65a.71.71,0,0,1-.75-.59L62.6,14.16c-.1-.38-.18-.73-.23-1s-.06-.32-.08-.48h0c0,.16-.05.31-.08.48s-.06.32-.09.5l-.12.54-1.67,6.28a.71.71,0,0,1-.75.59H58.35a.7.7,0,0,1-.75-.59Z"
                />
                <path
                    class="cls-1"
                    d="M71.39,10.11a.61.61,0,0,1,.68-.69h.75a.6.6,0,0,1,.67.69v4.25H78.8V10.11a.61.61,0,0,1,.69-.69h.73a.6.6,0,0,1,.67.69V20.34a.6.6,0,0,1-.67.69h-.73a.61.61,0,0,1-.69-.69V16.16H73.49v4.18a.6.6,0,0,1-.67.69h-.75a.61.61,0,0,1-.68-.69Z"
                />
                <path
                    class="cls-1"
                    d="M82.89,15.14a6.18,6.18,0,0,1,.44-2.32,5.7,5.7,0,0,1,1.24-1.88,6.06,6.06,0,0,1,1.9-1.26,6.73,6.73,0,0,1,4.84,0,5.9,5.9,0,0,1,1.89,1.26,5.73,5.73,0,0,1,1.25,1.88,6.18,6.18,0,0,1,.44,2.32,6.51,6.51,0,0,1-.44,2.39,5.88,5.88,0,0,1-1.25,1.94,5.67,5.67,0,0,1-1.89,1.29,6.47,6.47,0,0,1-4.84,0,5.71,5.71,0,0,1-3.14-3.23A6.51,6.51,0,0,1,82.89,15.14Zm2.17,0a4.69,4.69,0,0,0,.29,1.65,4,4,0,0,0,.79,1.31,3.66,3.66,0,0,0,1.21.88,3.87,3.87,0,0,0,3.08,0,3.62,3.62,0,0,0,1.2-.88,4,4,0,0,0,.8-1.31,4.69,4.69,0,0,0,.28-1.65,4.25,4.25,0,0,0-.28-1.57,3.86,3.86,0,0,0-.8-1.27,3.52,3.52,0,0,0-1.2-.84,4,4,0,0,0-3.08,0,3.56,3.56,0,0,0-1.21.84,3.84,3.84,0,0,0-.79,1.27A4.26,4.26,0,0,0,85.06,15.14Z"
                />
                <path class="cls-1" d="M96.88,10.11a.6.6,0,0,1,.67-.69h.76a.6.6,0,0,1,.67.69v9.12h4.33a.6.6,0,0,1,.69.67v.45a.61.61,0,0,1-.69.68H97.55a.6.6,0,0,1-.67-.69Z" />
                <path class="cls-1" d="M105.4,10.11a.6.6,0,0,1,.67-.69h.75a.6.6,0,0,1,.67.69V20.34a.6.6,0,0,1-.67.69h-.75a.6.6,0,0,1-.67-.69Z" />
                <path
                    class="cls-1"
                    d="M109.77,20.05a1,1,0,0,1-.27-.4.63.63,0,0,1,.17-.55l.36-.52a.63.63,0,0,1,.42-.31,1,1,0,0,1,.53.16l.36.25a4.64,4.64,0,0,0,1.2.5,2.85,2.85,0,0,0,.79.1,2,2,0,0,0,1.28-.37,1.16,1.16,0,0,0,.45-.95,1.18,1.18,0,0,0-.4-.92,4,4,0,0,0-1-.65c-.4-.2-.84-.4-1.3-.59a7.41,7.41,0,0,1-1.3-.71,3.7,3.7,0,0,1-1-1,2.7,2.7,0,0,1-.4-1.5,3.18,3.18,0,0,1,.3-1.39,3.43,3.43,0,0,1,.83-1.06A3.81,3.81,0,0,1,112,9.46a5.27,5.27,0,0,1,2.51-.14,5.83,5.83,0,0,1,.85.22,4.5,4.5,0,0,1,.69.28,4.28,4.28,0,0,1,.48.29.64.64,0,0,1,.21.93l-.29.54c-.12.24-.26.36-.43.36a1.07,1.07,0,0,1-.5-.13c-.24-.14-.52-.28-.84-.43a3,3,0,0,0-1.17-.21,2.06,2.06,0,0,0-1.29.36,1.14,1.14,0,0,0-.48,1,1.15,1.15,0,0,0,.4.89,4.38,4.38,0,0,0,1,.63c.4.19.83.37,1.3.56a8.53,8.53,0,0,1,1.3.7,3.7,3.7,0,0,1,1,1,2.69,2.69,0,0,1,.4,1.52,3.47,3.47,0,0,1-.26,1.33,3,3,0,0,1-.75,1.1A3.63,3.63,0,0,1,115,21a4.6,4.6,0,0,1-1.63.27,5,5,0,0,1-1.18-.13,6.68,6.68,0,0,1-1-.3,6.87,6.87,0,0,1-.81-.38A6,6,0,0,1,109.77,20.05Z"
                />
                <path class="cls-1" d="M121.72,11.22H118.6q-.69,0-.69-.66V10.1a.61.61,0,0,1,.69-.68h8.33a.6.6,0,0,1,.67.68v.46a.59.59,0,0,1-.67.66h-3.12v9.12a.61.61,0,0,1-.69.69h-.73a.6.6,0,0,1-.67-.69Z" />
                <path class="cls-1" d="M129,10.11a.6.6,0,0,1,.67-.69h.75a.61.61,0,0,1,.68.69V20.34a.61.61,0,0,1-.68.69h-.75a.6.6,0,0,1-.67-.69Z" />
                <path
                    class="cls-1"
                    d="M133.13,15.18a6.3,6.3,0,0,1,.44-2.35,5.7,5.7,0,0,1,3.12-3.15,6.32,6.32,0,0,1,2.42-.45,6.53,6.53,0,0,1,1.3.12,7.79,7.79,0,0,1,1.07.29,5.53,5.53,0,0,1,.84.38c.24.14.43.26.59.37a.63.63,0,0,1,.13.94l-.3.48c-.21.36-.52.41-.93.16a7.53,7.53,0,0,0-1-.53,4,4,0,0,0-1.57-.29,4.19,4.19,0,0,0-1.68.32,3.65,3.65,0,0,0-1.22.87,3.77,3.77,0,0,0-.74,1.28,4.53,4.53,0,0,0-.25,1.52,4.58,4.58,0,0,0,.26,1.57,3.74,3.74,0,0,0,2,2.24,3.85,3.85,0,0,0,1.66.35,4,4,0,0,0,.93-.11,5.63,5.63,0,0,0,.79-.25,4.25,4.25,0,0,0,.64-.33,5.13,5.13,0,0,0,.49-.33.59.59,0,0,1,.95.12l.32.44a.62.62,0,0,1-.1.95,7.74,7.74,0,0,1-.63.45,5.36,5.36,0,0,1-.9.47,6.33,6.33,0,0,1-1.16.37,6.22,6.22,0,0,1-1.41.15,6.34,6.34,0,0,1-2.48-.47,5.93,5.93,0,0,1-1.89-1.27,5.53,5.53,0,0,1-1.2-1.93A6.45,6.45,0,0,1,133.13,15.18Z"
                />
                <path
                    class="cls-1"
                    d="M149.87,10.08a.66.66,0,0,1,.7-.66h1a.75.75,0,0,1,.77.56l2.08,5.18c.07.18.13.36.2.56a5.17,5.17,0,0,1,.19.55l.2.59h0c.05-.2.12-.39.18-.59s.12-.36.19-.55.14-.38.2-.56L157.72,10a.76.76,0,0,1,.78-.56h1a.63.63,0,0,1,.7.66l.83,10.25c0,.47-.18.7-.65.7h-.74a.63.63,0,0,1-.7-.65l-.44-5.84a5.6,5.6,0,0,1,0-.6v-.59c0-.21,0-.41,0-.61h0q-.12.35-.21.66c-.07.18-.13.38-.21.58s-.13.4-.2.56l-1.68,4a.75.75,0,0,1-.77.54h-.69a.76.76,0,0,1-.78-.54l-1.67-4c-.07-.16-.14-.35-.21-.56s-.15-.42-.22-.6l-.21-.66h0c0,.21,0,.42,0,.63v.59c0,.22,0,.41,0,.6l-.44,5.84a.63.63,0,0,1-.7.65h-.74c-.47,0-.68-.23-.65-.7Z"
                />
                <path class="cls-1" d="M163.36,10.11a.6.6,0,0,1,.67-.69h.75a.6.6,0,0,1,.67.69V20.34a.6.6,0,0,1-.67.69H164a.6.6,0,0,1-.67-.69Z" />
                <path
                    class="cls-1"
                    d="M168.13,10.11a.61.61,0,0,1,.68-.69h.88a.86.86,0,0,1,.82.46l4.11,6.25c.11.17.23.36.35.57s.22.4.31.59.21.42.31.63h0c0-.21,0-.43-.06-.63a3.81,3.81,0,0,1,0-.59c0-.21,0-.4,0-.57v-6a.61.61,0,0,1,.68-.69h.74a.61.61,0,0,1,.69.69V20.34a.61.61,0,0,1-.69.69h-.88a.83.83,0,0,1-.8-.46l-4.14-6.23c-.11-.17-.22-.36-.34-.57s-.21-.4-.3-.59-.23-.42-.33-.63h0c0,.21,0,.43,0,.63s0,.38.05.59,0,.4,0,.57v6a.6.6,0,0,1-.67.69h-.75a.61.61,0,0,1-.68-.69Z"
                />
                <path
                    class="cls-1"
                    d="M180.28,10.11a.6.6,0,0,1,.67-.69h3.29a7.2,7.2,0,0,1,2.43.39,5.32,5.32,0,0,1,1.87,1.13,5,5,0,0,1,1.19,1.82,6.69,6.69,0,0,1,.43,2.45,6.69,6.69,0,0,1-.43,2.45,5.14,5.14,0,0,1-1.19,1.83,5.08,5.08,0,0,1-1.87,1.15,7.2,7.2,0,0,1-2.43.39H181a.6.6,0,0,1-.67-.69Zm3.84,9.12a3.87,3.87,0,0,0,2.82-1,4.06,4.06,0,0,0,1-3,4.81,4.81,0,0,0-.28-1.72,3.28,3.28,0,0,0-.78-1.24,3.34,3.34,0,0,0-1.22-.77,4.63,4.63,0,0,0-1.58-.26h-1.75v8Z"
                />
                <path
                    class="cls-1"
                    d="M191.78,20.05a.8.8,0,0,1-.27-.4.6.6,0,0,1,.17-.55l.36-.52a.64.64,0,0,1,.41-.31.94.94,0,0,1,.53.16l.37.25a3.26,3.26,0,0,0,.53.27,3.75,3.75,0,0,0,.67.23,2.85,2.85,0,0,0,.79.1,1.94,1.94,0,0,0,1.27-.37,1.14,1.14,0,0,0,.46-.95,1.18,1.18,0,0,0-.4-.92,4,4,0,0,0-1-.65c-.41-.2-.84-.4-1.3-.59a7.07,7.07,0,0,1-1.3-.71,3.56,3.56,0,0,1-1-1,2.62,2.62,0,0,1-.4-1.5,3.18,3.18,0,0,1,.3-1.39,3.28,3.28,0,0,1,.83-1.06A3.86,3.86,0,0,1,194,9.46a5.14,5.14,0,0,1,1.55-.23,5.07,5.07,0,0,1,1,.09,6.18,6.18,0,0,1,.85.22,4.5,4.5,0,0,1,.69.28,4.28,4.28,0,0,1,.48.29.64.64,0,0,1,.21.93l-.29.54c-.12.24-.26.36-.43.36a1.07,1.07,0,0,1-.5-.13,9.5,9.5,0,0,0-.85-.43,2.9,2.9,0,0,0-1.16-.21,2.11,2.11,0,0,0-1.3.36,1.15,1.15,0,0,0-.47,1,1.12,1.12,0,0,0,.4.89,4.38,4.38,0,0,0,1,.63c.4.19.83.37,1.29.56a8.19,8.19,0,0,1,1.31.7,3.7,3.7,0,0,1,1,1,2.69,2.69,0,0,1,.4,1.52,3.47,3.47,0,0,1-.26,1.33,3.26,3.26,0,0,1-.75,1.1A3.63,3.63,0,0,1,197,21a4.6,4.6,0,0,1-1.63.27,5,5,0,0,1-1.18-.13,6.35,6.35,0,0,1-1-.3,6.19,6.19,0,0,1-.81-.38A6,6,0,0,1,191.78,20.05Z"
                />
            </g>
            <path class="cls-2" d="M37.67,14.26l-1.14,5.15A17.12,17.12,0,0,1,29.7,29.54,13.89,13.89,0,0,0,40,22.84l5-9A12.46,12.46,0,0,0,37.67,14.26Z" />
            <path class="cls-2" d="M8.47,19.41,7.33,14.26A12.46,12.46,0,0,0,0,13.83l5,9a13.89,13.89,0,0,0,10.31,6.7A17.12,17.12,0,0,1,8.47,19.41Z" />
            <path class="cls-3" d="M22.5,12a6.71,6.71,0,0,1-5.06-2.3c-.47.38-.93.79-1.38,1.22a17.09,17.09,0,0,1,4.51,8.17l1.93,8.7,1.93-8.7a17.14,17.14,0,0,1,4.51-8.17c-.45-.43-.91-.84-1.38-1.22A6.71,6.71,0,0,1,22.5,12Z" />
            <circle class="cls-3" cx="22.5" cy="5.25" r="5.25" />
            <path class="cls-1" d="M19.1,19.41C17.79,13.48,12.7,8.59,7.48,8.05l2.45,11C11.25,25,16.34,29.91,21.55,30.45A10.67,10.67,0,0,1,15.23,23l-1.5-6.75a10.68,10.68,0,0,1,6.33,7.5" />
            <path class="cls-1" d="M25.9,19.41c1.31-5.93,6.4-10.82,11.62-11.36l-2.45,11C33.75,25,28.66,29.91,23.45,30.45A10.67,10.67,0,0,0,29.77,23l1.5-6.75a10.68,10.68,0,0,0-6.33,7.5" />
        </g>
    </g>
</svg>
